<?xml version="1.0" standalone="no"?>
<svg viewBox="0 0 10 200" xmlns="http://www.w3.org/2000/svg">
  <path fill="#00357A" d="M46.3,-65.3C58.7,-64.2,66.3,-49,64.3,-34.8C62.3,-20.6,50.6,-7.5,48.8,7.2C47,22,55,38.3,50.8,45.1C46.6,51.8,30,48.9,15.7,52.9C1.3,56.9,-11,67.9,-20.8,66.9C-30.7,65.8,-38.2,52.7,-41.7,40.6C-45.2,28.5,-44.7,17.4,-43.7,7.8C-42.8,-1.9,-41.4,-10.1,-40.2,-20.7C-39,-31.3,-37.9,-44.4,-31.3,-48.1C-24.6,-51.8,-12.3,-46.2,2.4,-49.8C17,-53.5,34,-66.5,46.3,-65.3Z" transform="translate(100 100)" />
</svg>
